<?xml version="1.0" encoding="UTF-8" standalone="no"?>
<!-- Created with Inkscape (http://www.inkscape.org/) -->

<svg
   xmlns:dc="http://purl.org/dc/elements/1.1/"
   xmlns:cc="http://creativecommons.org/ns#"
   xmlns:rdf="http://www.w3.org/1999/02/22-rdf-syntax-ns#"
   xmlns:svg="http://www.w3.org/2000/svg"
   xmlns="http://www.w3.org/2000/svg"
   xmlns:sodipodi="http://sodipodi.sourceforge.net/DTD/sodipodi-0.dtd"
   xmlns:inkscape="http://www.inkscape.org/namespaces/inkscape"
   width="6.0921946in"
   height="2.2130611in"
   viewBox="0 0 548.2975 199.1755"
   id="svg2"
   version="1.1"
   inkscape:version="0.91 r13725"
   sodipodi:docname="logo-white.svg"
   inkscape:export-filename="/Users/mquezada/Documents/drawing.png"
   inkscape:export-xdpi="90"
   inkscape:export-ydpi="90">
  <defs
     id="defs4" />
  <sodipodi:namedview
     id="base"
     pagecolor="#ffffff"
     bordercolor="#666666"
     borderopacity="1.0"
     inkscape:pageopacity="0.0"
     inkscape:pageshadow="2"
     inkscape:zoom="0.49497475"
     inkscape:cx="565.11278"
     inkscape:cy="88.985995"
     inkscape:document-units="px"
     inkscape:current-layer="layer2"
     showgrid="false"
     inkscape:window-width="1280"
     inkscape:window-height="756"
     inkscape:window-x="0"
     inkscape:window-y="0"
     inkscape:window-maximized="1"
     fit-margin-top="0.1"
     fit-margin-left="0.1"
     fit-margin-right="0.1"
     fit-margin-bottom="0.1"
     units="in" />
  <metadata
     id="metadata7">
    <rdf:RDF>
      <cc:Work
         rdf:about="">
        <dc:format>image/svg+xml</dc:format>
        <dc:type
           rdf:resource="http://purl.org/dc/dcmitype/StillImage" />
        <dc:title></dc:title>
      </cc:Work>
    </rdf:RDF>
  </metadata>
  <g
     inkscape:groupmode="layer"
     id="layer2"
     inkscape:label="Capa 2"
     style="display:inline"
     transform="translate(-4.9999758,-2.3683156)">
    <g
       transform="matrix(1.0229535,0,0,1.0539493,-165.38318,-280.8413)"
       style="font-style:normal;font-weight:normal;font-size:225px;line-height:125%;font-family:sans-serif;letter-spacing:0px;word-spacing:0px;fill:#f9f9f9;fill-opacity:1;stroke:none;stroke-width:1px;stroke-linecap:butt;stroke-linejoin:miter;stroke-opacity:1"
       id="text3336">
      <path
         style="font-style:normal;font-variant:normal;font-weight:500;font-stretch:normal;font-size:225px;font-family:MankSans-Medium;-inkscape-font-specification:'MankSans-Medium Medium';letter-spacing:-12.45490265px;fill:#f9f9f9"
         d="m 64.949219,435.09375 c -0.850473,0.31747 -1.631116,0.95384 -2.339844,1.90625 -0.708728,0.95241 -1.20479,1.82546 -1.488281,2.61914 l 0,171.91016 c 0,0.95241 0.28458,1.9826 0.851562,3.09375 0.708728,0.95241 1.558563,1.42968 2.550782,1.42968 l 2.976562,0 c 0.992219,0 2.055489,-0.15909 3.189453,-0.47656 4.110621,0.63494 8.221411,1.03267 12.332031,1.19141 4.110621,0.15873 8.221411,0.23828 12.332032,0.23828 8.504734,0 16.016814,-1.82565 22.537104,-5.47656 6.66205,-3.80965 12.26102,-8.81129 16.79688,-15.00196 4.53586,-6.3494 7.9391,-13.57052 10.20703,-21.66601 2.40968,-8.25423 3.61328,-16.82568 3.61328,-25.71485 0,-16.34972 -3.47243,-28.65202 -10.41797,-36.90625 -6.94553,-8.25422 -17.86086,-12.38281 -32.74414,-12.38281 -5.811564,0 -11.410541,1.11169 -16.796872,3.33399 -5.244585,2.06355 -9.920629,5.39668 -14.03125,10 l 0,-73.57227 C 74.234087,438.82546 73.666879,437.95241 72.816406,437 c -0.850473,-0.95241 -1.631116,-1.58878 -2.339844,-1.90625 l -5.527343,0 z m 262.273441,0 -1.70118,0.95313 c -0.42523,0.4762 -0.85015,1.03107 -1.27539,1.66601 -0.42523,0.47621 -0.77901,1.11257 -1.0625,1.90625 l 0,116.43164 c 0,6.66688 0.21149,13.65131 0.63672,20.95313 0.56698,7.14308 1.91484,13.72978 4.04102,19.76171 2.26793,5.87321 5.59807,10.71575 9.99219,14.5254 4.53585,3.80964 10.70204,5.71484 18.49804,5.71484 2.83491,0 5.74014,-0.39773 8.7168,-1.19141 3.1184,-0.79367 5.88329,-2.06446 8.29297,-3.81054 l 1.48828,-3.09375 0,-3.09571 c 0,-1.42861 -0.14229,-2.77894 -0.42578,-4.04883 -0.14175,-1.26988 -0.49552,-2.37962 -1.0625,-3.33203 -0.56698,-0.95241 -1.34763,-1.42968 -2.33985,-1.42968 -0.99221,0 -1.91319,0.31818 -2.76367,0.95312 -0.70873,0.63494 -1.62971,1.3489 -2.76367,2.14258 -0.99222,0.79368 -2.26892,1.50764 -3.82812,2.14258 -1.41746,0.63494 -3.18827,0.95312 -5.31446,0.95312 -5.10284,0 -9.00019,-1.66656 -11.69336,-5 -2.69316,-3.49217 -4.67741,-7.69835 -5.95312,-12.61914 -1.13397,-4.92079 -1.84346,-10.07957 -2.12696,-15.47656 -0.14174,-5.397 -0.21289,-10.08045 -0.21289,-14.04883 l 0,-58.09766 c 0.14175,-19.36568 0.21289,-38.80955 0.21289,-58.33398 -0.28349,-0.79368 -0.85069,-1.66673 -1.70117,-2.61914 -0.85047,-0.95241 -1.62916,-1.58878 -2.33789,-1.90625 l -5.3164,0 z m 140.21093,0 c -0.85047,0.31747 -1.63111,0.95384 -2.33984,1.90625 -0.70873,0.95241 -1.20479,1.82546 -1.48828,2.61914 l 0,171.91016 c 0,0.95241 0.28458,1.9826 0.85156,3.09375 0.70873,0.95241 1.55856,1.42968 2.55078,1.42968 l 2.97657,0 c 0.99221,0 2.05548,-0.15909 3.18945,-0.47656 4.11062,0.63494 8.22141,1.03267 12.33203,1.19141 4.11062,0.15873 8.22141,0.23828 12.33203,0.23828 8.50473,0 16.01682,-1.82565 22.53711,-5.47656 6.66204,-3.80965 12.26102,-8.81129 16.79688,-15.00196 4.53585,-6.3494 7.93714,-13.57052 10.20507,-21.66601 2.40968,-8.25423 3.61524,-16.82568 3.61524,-25.71485 0,-16.34972 -3.47244,-28.65202 -10.41797,-36.90625 -6.94553,-8.25422 -17.86086,-12.38281 -32.74414,-12.38281 -5.81157,0 -11.41055,1.11169 -16.79688,3.33399 -5.24458,2.06355 -9.92063,5.39668 -14.03125,10 l 0,-73.57227 c -0.28349,-0.79368 -0.8507,-1.66673 -1.70117,-2.61914 -0.85047,-0.95241 -1.63111,-1.58878 -2.33984,-1.90625 l -5.52735,0 z M 267.70703,470.0957 c -0.70873,0.31747 -1.48742,0.87234 -2.33789,1.66602 -0.70873,0.63494 -1.27593,1.27131 -1.70117,1.90625 -0.14175,5.07952 -0.21289,10.2383 -0.21289,15.47656 0,5.07953 -0.14229,10.15876 -0.42578,15.23828 l -11.90625,0 c -1.27571,0.47621 -2.41013,1.42881 -3.40235,2.85742 l -0.63672,1.66602 0,5.23828 0.84961,2.14258 2.55079,2.38086 12.54492,0 0,61.19336 c 0,5.55573 0.35377,10.63496 1.0625,15.23828 0.85047,4.44458 2.26947,8.33258 4.2539,11.66601 2.12619,3.17471 4.96027,5.71628 8.50391,7.6211 3.54364,1.74609 8.07935,2.61914 13.60742,2.61914 3.96888,0 8.15081,-0.55682 12.54492,-1.66797 4.39411,-1.26988 8.22032,-3.09553 11.48047,-5.47656 l 1.27735,-2.61914 0,-5.71485 c 0.14174,-1.42861 -0.0717,-2.85654 -0.63868,-4.28515 -0.42523,-1.42862 -1.4885,-2.14258 -3.18945,-2.14258 -0.56698,0 -1.63025,0.47532 -3.18945,1.42773 -1.41746,0.79368 -3.11908,1.66673 -5.10352,2.61914 -1.98444,0.95242 -4.18017,1.90502 -6.58984,2.85743 -2.26793,0.79367 -4.53676,1.1914 -6.80469,1.1914 -2.83491,0 -5.17293,-0.71396 -7.01562,-2.14258 -1.8427,-1.42861 -3.33088,-3.25427 -4.46485,-5.47656 -0.99222,-2.38103 -1.70171,-4.92064 -2.12695,-7.61914 -0.28349,-2.6985 -0.42578,-5.3972 -0.42578,-8.0957 l 0,-61.19336 32.53125,0 c 0.70873,-0.31747 1.48937,-0.95189 2.33984,-1.9043 0.85047,-0.95241 1.41573,-1.82546 1.69922,-2.61914 l 0,-5.23828 c -0.28349,-0.79368 -0.77955,-1.58718 -1.48828,-2.38086 -0.56698,-0.95241 -1.20338,-1.66637 -1.91211,-2.14258 l -33.16992,0 0,-29.76367 -1.0625,-2.14258 -2.55078,-2.38086 -4.89063,0 z m -65.36523,29.28711 c -8.36299,0 -15.59244,1.34838 -21.6875,4.04688 -6.09506,2.6985 -11.12683,6.58844 -15.09571,11.66797 -3.82713,5.07952 -6.66316,11.1909 -8.50586,18.33398 -1.84269,7.14308 -2.76367,15.23725 -2.76367,24.28516 0,8.5717 0.99213,16.50873 2.97656,23.81054 1.98444,7.14309 4.96082,13.41356 8.92969,18.81055 4.11062,5.23826 9.14435,9.36489 15.09766,12.38086 6.09506,2.85723 13.18222,4.28711 21.26172,4.28711 8.07949,0 15.09551,-1.50942 21.04883,-4.52539 5.95331,-3.01597 10.91393,-7.1426 14.88281,-12.38086 3.96887,-5.23826 6.8741,-11.42918 8.71679,-18.57227 1.98444,-7.30181 2.97657,-15.23884 2.97657,-23.81054 0,-9.04791 -0.92098,-17.14208 -2.76367,-24.28516 -1.8427,-7.14308 -4.67678,-13.25446 -8.50391,-18.33398 -3.82713,-5.07953 -8.78775,-8.96947 -14.88281,-11.66797 -5.95332,-2.6985 -13.18277,-4.04688 -21.6875,-4.04688 z m 216.34375,0.47461 c -2.69317,0 -5.95217,0.55682 -9.7793,1.66797 -3.82713,0.95241 -7.513,2.1417 -11.05664,3.57031 -3.54364,1.26988 -6.59116,2.46112 -9.14258,3.57227 l -3.61523,1.42969 -1.27539,2.85546 0,3.57227 c 0,1.58735 0.14229,3.49255 0.42578,5.71484 0.42523,2.06356 1.63079,3.09571 3.61523,3.09571 0.42524,0 1.62885,-0.55683 3.61328,-1.66797 2.12619,-1.26988 4.6065,-2.61826 7.44141,-4.04688 2.97666,-1.58735 6.16647,-2.93768 9.56836,-4.04882 3.54364,-1.26989 7.01607,-1.9043 10.41797,-1.9043 6.80378,0 12.12013,1.42988 15.94726,4.28711 3.96888,2.85723 5.95313,8.41179 5.95313,16.66601 l 0,9.52344 c -4.11062,0 -8.50599,0.0795 -13.1836,0.23828 -4.6776,0 -9.35364,0.31819 -14.03125,0.95313 -4.6776,0.4762 -9.21331,1.4288 -13.60742,2.85742 -4.25236,1.42862 -8.08053,3.5705 -11.48242,6.42773 -3.26015,2.6985 -5.88275,6.19072 -7.86719,10.47657 -1.98443,4.28585 -2.97656,9.68326 -2.97656,16.1914 0,5.23826 0.78064,10.08081 2.33984,14.52539 1.55921,4.44459 3.75494,8.25303 6.58985,11.42774 2.97665,3.01597 6.3799,5.39844 10.20703,7.14453 3.96887,1.74609 8.29115,2.61914 12.96875,2.61914 6.37855,0 12.26211,-1.50942 17.64844,-4.52539 5.38633,-3.01597 9.99318,-7.38124 13.82031,-13.0957 l 0.21094,11.66796 c 0.28349,0.79368 0.63921,1.50764 1.06445,2.14258 l 1.27539,1.42774 1.70117,0.95312 4.46485,0 c 0.85047,-0.31747 1.7003,-0.87234 2.55078,-1.66601 0.85047,-0.95241 1.41768,-1.90501 1.70117,-2.85743 l 0,-76.43164 c 0,-6.82561 -0.77869,-12.45971 -2.33789,-16.90429 -1.5592,-4.60332 -3.89918,-8.17508 -7.01758,-10.71485 -2.97666,-2.69849 -6.66253,-4.52415 -11.05664,-5.47656 -4.39411,-1.11115 -9.42588,-1.66797 -15.0957,-1.66797 z m -216.13086,13.33399 c 6.37855,0 11.69294,1.03214 15.94531,3.0957 4.39411,1.90482 7.93769,4.68308 10.63086,8.33398 2.69316,3.65091 4.60627,8.09573 5.74023,13.33399 1.13397,5.07952 1.70118,10.87272 1.70118,17.38086 0,6.3494 -0.6364,12.46078 -1.91211,18.33398 -1.13397,5.71447 -3.04903,10.7937 -5.74219,15.23828 -2.55142,4.28585 -6.02386,7.77807 -10.41797,10.47657 -4.39411,2.53976 -9.77965,3.81054 -16.1582,3.81054 -5.95332,0 -11.12738,-1.19124 -15.52149,-3.57226 -4.25236,-2.53977 -7.86709,-5.87289 -10.84375,-10 -2.83491,-4.12712 -4.96145,-8.96771 -6.3789,-14.52344 -1.27571,-5.55573 -1.91407,-11.35088 -1.91407,-17.38281 0,-6.34941 0.63836,-12.22215 1.91407,-17.61914 1.41745,-5.55573 3.47285,-10.31678 6.16601,-14.28516 2.83491,-3.96838 6.44964,-7.06482 10.84375,-9.28711 4.39411,-2.22229 9.71046,-3.33398 15.94727,-3.33398 z m -97.20899,0.47656 c 10.48917,0 18.07435,3.09644 22.75196,9.28711 4.6776,6.19067 7.01562,14.92121 7.01562,26.1914 0,6.66688 -0.84983,13.25358 -2.55078,19.76172 -1.5592,6.50814 -4.04147,12.30134 -7.44336,17.38086 -3.26015,5.07953 -7.36898,9.20811 -12.33008,12.38282 -4.96109,3.01596 -10.7735,4.52343 -17.435544,4.52343 l -10.63086,0 c -3.401893,-0.15873 -6.803185,-0.39737 -10.205078,-0.71484 l 0,-61.66797 c 0,-4.12711 0.992125,-7.85797 2.976563,-11.19141 1.984437,-3.33343 4.46475,-6.19123 7.441406,-8.57226 3.118402,-2.38103 6.448549,-4.20668 9.992187,-5.47656 3.685384,-1.26989 7.157826,-1.9043 10.417966,-1.9043 z m 402.48438,0 c 10.48917,0 18.0724,3.09644 22.75,9.28711 4.6776,6.19067 7.01758,14.92121 7.01758,26.1914 0,6.66688 -0.85179,13.25358 -2.55274,19.76172 -1.5592,6.50814 -4.03951,12.30134 -7.4414,17.38086 -3.26015,5.07953 -7.37094,9.20811 -12.33204,12.38282 -4.96109,3.01596 -10.77155,4.52343 -17.43359,4.52343 l -10.63086,0 c -3.40189,-0.15873 -6.80318,-0.39737 -10.20508,-0.71484 l 0,-61.66797 c 0,-4.12711 0.99213,-7.85797 2.97657,-11.19141 1.98443,-3.33343 4.46475,-6.19123 7.4414,-8.57226 3.1184,-2.38103 6.44855,-4.20668 9.99219,-5.47656 3.68538,-1.26989 7.15782,-1.9043 10.41797,-1.9043 z m -67.70703,41.41797 c 0.39813,0.008 0.19039,0.41559 0.33007,1.70898 l 0.002,0 -0.082,3.0957 c 0,5.55574 -0.49607,9.33543 -1.48828,14.73243 -0.99222,5.23826 -2.69385,9.9993 -5.10352,14.28515 -2.26793,4.28585 -5.38464,7.77807 -9.35352,10.47657 -3.96887,2.53976 -8.93145,3.81054 -14.88476,3.81054 -2.69317,0 -5.10233,-0.63441 -7.22852,-1.90429 -2.12618,-1.26989 -3.96814,-2.85885 -5.52734,-4.76368 -1.5592,-2.06355 -2.76476,-4.36453 -3.61523,-6.90429 -0.85048,-2.6985 -1.2754,-5.47675 -1.2754,-8.33399 0,-4.28585 0.70755,-7.85761 2.125,-10.71484 1.41746,-2.85723 3.33252,-5.15821 5.74219,-6.9043 2.40968,-1.90482 5.10147,-3.33274 8.07813,-4.28515 2.97665,-0.95242 6.09532,-1.58878 9.35547,-1.90625 1.41745,-0.15874 4.1e-4,5.5e-4 4.55468,-0.53516 4.25237,-0.47621 -2.41773,0.19805 4.25196,-0.47656 3.08713,-0.25797 10e-4,-3.6e-4 7.5664,-0.47657 4.53026,-0.26783 6.04085,-0.91501 6.55274,-0.90429 z"
         transform="matrix(1.0582344,0,0,0.94497023,110.67763,-133.89858)"
         id="path4145"
         inkscape:connector-curvature="0" />
    </g>
  </g>
</svg>
